<?xml version="1.0" encoding="UTF-8" standalone="no" ?>
<!DOCTYPE svg PUBLIC "-//W3C//DTD SVG 1.1//EN" "http://www.w3.org/Graphics/SVG/1.1/DTD/svg11.dtd">
<svg xmlns="http://www.w3.org/2000/svg" xmlns:xlink="http://www.w3.org/1999/xlink" version="1.1" width="1080" height="1080" viewBox="0 0 1080 1080" xml:space="preserve">
<desc>Created with Fabric.js 5.2.4</desc>
<defs>
</defs>
<g transform="matrix(1 0 0 1 540 540)" id="c8e1a833-d29f-4a45-b705-5bf3e719a2a7"  >
<rect style="stroke: none; stroke-width: 1; stroke-dasharray: none; stroke-linecap: butt; stroke-dashoffset: 0; stroke-linejoin: miter; stroke-miterlimit: 4; fill: rgb(255,255,255); fill-rule: nonzero; opacity: 1; visibility: hidden;" vector-effect="non-scaling-stroke"  x="-540" y="-540" rx="0" ry="0" width="1080" height="1080" />
</g>
<g transform="matrix(1 0 0 1 540 540)" id="207dff37-8d8f-4a09-baeb-450893799c1c"  >
</g>
<g transform="matrix(1 0 0 1 540 540)"  >
<g style="" vector-effect="non-scaling-stroke"   >
		<g transform="matrix(1 0 0 1 0 0)" id="Path"  >
<polygon style="stroke: none; stroke-width: 1; stroke-dasharray: none; stroke-linecap: butt; stroke-dashoffset: 0; stroke-linejoin: miter; stroke-miterlimit: 4; fill: none; fill-rule: evenodd; opacity: 1;" vector-effect="non-scaling-stroke"  points="-12,-12 12,-12 12,12 -12,12 " />
</g>
		<g transform="matrix(1 0 0 1 -0.03 -1.77)" id="Triangle"  >
<polygon style="stroke: rgb(0,0,0); stroke-width: 0.75; stroke-dasharray: none; stroke-linecap: butt; stroke-dashoffset: 0; stroke-linejoin: round; stroke-miterlimit: 4; fill: none; fill-rule: evenodd; opacity: 1;" vector-effect="non-scaling-stroke"  points="0,-5.31 6.21,5.31 -6.21,5.31 " />
</g>
		<g transform="matrix(1 0 0 1 4.49 -1.77)" id="Path-5"  >
<polygon style="stroke: rgb(0,0,0); stroke-width: 0.75; stroke-dasharray: none; stroke-linecap: butt; stroke-dashoffset: 0; stroke-linejoin: round; stroke-miterlimit: 4; fill: none; fill-rule: evenodd; opacity: 1;" vector-effect="non-scaling-stroke"  points="-4.51,-5.31 1.71,5.31 4.51,-3.19 " />
</g>
		<g transform="matrix(1 0 0 1 7.53 0.26)" id="Path-6"  >
<polygon style="stroke: rgb(0,0,0); stroke-width: 0.75; stroke-dasharray: none; stroke-linecap: butt; stroke-dashoffset: 0; stroke-linejoin: round; stroke-miterlimit: 4; fill: none; fill-rule: evenodd; opacity: 1;" vector-effect="non-scaling-stroke"  points="-1.41,3.29 1.41,5.19 1.41,-5.19 " />
</g>
		<g transform="matrix(1 0 0 1 -0.03 7.3)" id="Path-7"  >
<polygon style="stroke: rgb(0,0,0); stroke-width: 0.75; stroke-dasharray: none; stroke-linecap: butt; stroke-dashoffset: 0; stroke-linejoin: round; stroke-miterlimit: 4; fill: none; fill-rule: evenodd; opacity: 1;" vector-effect="non-scaling-stroke"  points="6.21,-3.7 -0.01,3.7 -6.21,-3.7 " />
</g>
		<g transform="matrix(1 0 0 1 4.49 7.3)" id="Path-8"  >
<polygon style="stroke: rgb(0,0,0); stroke-width: 0.75; stroke-dasharray: none; stroke-linecap: butt; stroke-dashoffset: 0; stroke-linejoin: round; stroke-miterlimit: 4; fill: none; fill-rule: evenodd; opacity: 1;" vector-effect="non-scaling-stroke"  points="4.51,-1.79 -4.51,3.7 1.71,-3.7 " />
</g>
		<g transform="matrix(-1 0 0 1 -4.54 -1.77)" id="Path-5"  >
<polygon style="stroke: rgb(0,0,0); stroke-width: 0.75; stroke-dasharray: none; stroke-linecap: butt; stroke-dashoffset: 0; stroke-linejoin: round; stroke-miterlimit: 4; fill: none; fill-rule: evenodd; opacity: 1;" vector-effect="non-scaling-stroke"  points="-4.51,-5.31 1.71,5.31 4.51,-3.19 " />
</g>
		<g transform="matrix(-1 0 0 1 -7.59 0.26)" id="Path-6"  >
<polygon style="stroke: rgb(0,0,0); stroke-width: 0.75; stroke-dasharray: none; stroke-linecap: butt; stroke-dashoffset: 0; stroke-linejoin: round; stroke-miterlimit: 4; fill: none; fill-rule: evenodd; opacity: 1;" vector-effect="non-scaling-stroke"  points="-1.41,3.29 1.41,5.19 1.41,-5.19 " />
</g>
		<g transform="matrix(-1 0 0 1 -4.54 7.3)" id="Path-8"  >
<polygon style="stroke: rgb(0,0,0); stroke-width: 0.75; stroke-dasharray: none; stroke-linecap: butt; stroke-dashoffset: 0; stroke-linejoin: round; stroke-miterlimit: 4; fill: none; fill-rule: evenodd; opacity: 1;" vector-effect="non-scaling-stroke"  points="4.51,-1.79 -4.51,3.7 1.71,-3.7 " />
</g>
		<g transform="matrix(1 0 0 1 4.49 -7.48)" id="Path-9"  >
<polygon style="stroke: rgb(0,0,0); stroke-width: 0.75; stroke-dasharray: none; stroke-linecap: butt; stroke-dashoffset: 0; stroke-linejoin: round; stroke-miterlimit: 4; fill: none; fill-rule: evenodd; opacity: 1;" vector-effect="non-scaling-stroke"  points="-4.5,0.39 -4.51,-2.52 4.51,2.52 " />
</g>
		<g transform="matrix(-1 0 0 1 -4.54 -7.46)" id="Path-9"  >
<polygon style="stroke: rgb(0,0,0); stroke-width: 0.75; stroke-dasharray: none; stroke-linecap: butt; stroke-dashoffset: 0; stroke-linejoin: round; stroke-miterlimit: 4; fill: none; fill-rule: evenodd; opacity: 1;" vector-effect="non-scaling-stroke"  points="-4.5,0.37 -4.51,-2.54 4.51,2.54 " />
</g>
		<g transform="matrix(1 0 0 1 0 0.48)" id="Path-10"  >
<path style="stroke: rgb(0,0,0); stroke-width: 0.75; stroke-dasharray: none; stroke-linecap: butt; stroke-dashoffset: 0; stroke-linejoin: miter; stroke-miterlimit: 4; fill: none; fill-rule: evenodd; opacity: 1;" vector-effect="non-scaling-stroke"  transform=" translate(-9, -10.48)" d="M 0 5.63369187 L 0 14.890695 C -4.01383168e-16 15.2394163 0.180615901 15.5632581 0.477309721 15.7465047 L 8.45390968 20.6730816 C 8.77827115 20.8734166 9.18801402 20.8731604 9.51212472 20.67242 L 17.4682691 15.7447219 C 17.7626449 15.5623981 17.9425487 15.2414818 17.9444932 14.8952227 L 17.9966585 5.60637252 C 17.9987194 5.23939904 17.8007649 4.90042593 17.4801394 4.72189577 L 9.48934735 0.272477503 C 9.18510812 0.103071565 8.81489188 0.103071565 8.51065265 0.272477503 L 0.543721053 4.70860987 C 0.20808108 4.89550031 -3.88253023e-16 5.24952754 0 5.63369187 Z" stroke-linecap="round" />
</g>
</g>
</g>
<g transform="matrix(1 0 0 1 540 522.71)" style="" id="685d0a7c-f774-4f9f-bd68-64f68093ec84"  >
		<text xml:space="preserve" font-family="Lato" font-size="17" font-style="normal" font-weight="400" style="stroke: none; stroke-width: 1; stroke-dasharray: none; stroke-linecap: butt; stroke-dashoffset: 0; stroke-linejoin: miter; stroke-miterlimit: 4; fill: rgb(0,0,0); fill-rule: nonzero; opacity: 1; white-space: pre;" ><tspan x="-11.08" y="5.34" >DS</tspan></text>
</g>
</svg>